<svg width="625" height="627" viewBox="0 0 625 627" fill="none" xmlns="http://www.w3.org/2000/svg">
<g filter="url(#filter0_d_8_496)">
<rect x="32.2549" y="28" width="560" height="563" rx="12" fill="white"/>
<rect x="32.7549" y="28.5" width="559" height="562" rx="11.5" stroke="#EBEBEB"/>
<path d="M121.986 114.273C121.986 108.562 118.441 105.307 113.813 105.307C109.16 105.307 105.64 108.562 105.64 114.273C105.64 119.957 109.16 123.239 113.813 123.239C118.441 123.239 121.986 119.983 121.986 114.273ZM118.245 114.273C118.245 117.972 116.489 119.974 113.813 119.974C111.128 119.974 109.381 117.972 109.381 114.273C109.381 110.574 111.128 108.571 113.813 108.571C116.489 108.571 118.245 110.574 118.245 114.273ZM130.567 123.256C134.052 123.256 136.243 121.21 136.413 118.202H132.987C132.774 119.599 131.853 120.384 130.609 120.384C128.913 120.384 127.814 118.96 127.814 116.455C127.814 113.983 128.922 112.568 130.609 112.568C131.939 112.568 132.791 113.446 132.987 114.75H136.413C136.26 111.724 133.967 109.739 130.549 109.739C126.578 109.739 124.123 112.491 124.123 116.506C124.123 120.486 126.535 123.256 130.567 123.256ZM145.701 109.909H143.238V106.773H139.607V109.909H137.817V112.636H139.607V119.455C139.59 122.02 141.337 123.29 143.971 123.179C144.908 123.145 145.573 122.957 145.939 122.838L145.368 120.136C145.189 120.17 144.806 120.256 144.465 120.256C143.741 120.256 143.238 119.983 143.238 118.977V112.636H145.701V109.909ZM153.84 123.256C157.812 123.256 160.283 120.537 160.283 116.506C160.283 112.449 157.812 109.739 153.84 109.739C149.868 109.739 147.397 112.449 147.397 116.506C147.397 120.537 149.868 123.256 153.84 123.256ZM153.857 120.443C152.025 120.443 151.087 118.764 151.087 116.48C151.087 114.196 152.025 112.509 153.857 112.509C155.655 112.509 156.593 114.196 156.593 116.48C156.593 118.764 155.655 120.443 153.857 120.443ZM162.712 123H166.292V120.903H166.454C166.956 121.994 168.056 123.213 170.17 123.213C173.152 123.213 175.479 120.852 175.479 116.472C175.479 111.972 173.05 109.739 170.178 109.739C167.988 109.739 166.939 111.043 166.454 112.108H166.343V105.545H162.712V123ZM166.266 116.455C166.266 114.119 167.255 112.628 169.019 112.628C170.817 112.628 171.772 114.188 171.772 116.455C171.772 118.739 170.8 120.324 169.019 120.324C167.272 120.324 166.266 118.79 166.266 116.455ZM183.868 123.256C187.106 123.256 189.288 121.679 189.799 119.25L186.442 119.028C186.075 120.026 185.138 120.545 183.927 120.545C182.112 120.545 180.961 119.344 180.961 117.392V117.384H189.876V116.386C189.876 111.938 187.183 109.739 183.723 109.739C179.87 109.739 177.373 112.474 177.373 116.514C177.373 120.665 179.836 123.256 183.868 123.256ZM180.961 115.134C181.038 113.642 182.172 112.449 183.782 112.449C185.359 112.449 186.45 113.574 186.459 115.134H180.961ZM192.245 123H195.876V115.594C195.876 113.983 197.052 112.875 198.655 112.875C199.157 112.875 199.848 112.96 200.189 113.071V109.849C199.865 109.773 199.413 109.722 199.047 109.722C197.581 109.722 196.379 110.574 195.902 112.193H195.765V109.909H192.245V123ZM207.586 123H220.03V119.983H212.7V119.864L215.248 117.366C218.836 114.094 219.799 112.457 219.799 110.472C219.799 107.446 217.328 105.307 213.586 105.307C209.922 105.307 207.407 107.497 207.416 110.923H210.919C210.91 109.253 211.967 108.23 213.561 108.23C215.095 108.23 216.237 109.185 216.237 110.719C216.237 112.108 215.385 113.062 213.799 114.588L207.586 120.341V123ZM229.547 123.384C233.937 123.384 236.587 120.043 236.596 114.29C236.604 108.58 233.92 105.307 229.547 105.307C225.167 105.307 222.508 108.571 222.499 114.29C222.482 120.026 225.15 123.375 229.547 123.384ZM229.547 120.324C227.545 120.324 226.249 118.312 226.258 114.29C226.266 110.327 227.553 108.332 229.547 108.332C231.533 108.332 232.829 110.327 232.829 114.29C232.837 118.312 231.542 120.324 229.547 120.324ZM239.227 123H251.67V119.983H244.341V119.864L246.889 117.366C250.477 114.094 251.44 112.457 251.44 110.472C251.44 107.446 248.969 105.307 245.227 105.307C241.562 105.307 239.048 107.497 239.057 110.923H242.559C242.551 109.253 243.608 108.23 245.201 108.23C246.736 108.23 247.878 109.185 247.878 110.719C247.878 112.108 247.025 113.062 245.44 114.588L239.227 120.341V123ZM261.188 123.384C265.577 123.384 268.228 120.043 268.236 114.29C268.245 108.58 265.56 105.307 261.188 105.307C256.807 105.307 254.148 108.571 254.14 114.29C254.123 120.026 256.79 123.375 261.188 123.384ZM261.188 120.324C259.185 120.324 257.89 118.312 257.898 114.29C257.907 110.327 259.194 108.332 261.188 108.332C263.174 108.332 264.469 110.327 264.469 114.29C264.478 118.312 263.182 120.324 261.188 120.324Z" fill="#333333"/>
<path d="M487.598 109L481.941 114.657L487.598 120.314" stroke="#333333" stroke-width="2" stroke-linecap="round" stroke-linejoin="round"/>
<path d="M514.912 109L520.569 114.657L514.912 120.314" stroke="#333333" stroke-width="2" stroke-linecap="round" stroke-linejoin="round"/>
<g clip-path="url(#clip0_8_496)">
<path d="M106.45 190.545V208H108.956V195.361H109.117L114.265 207.974H116.345L121.492 195.369H121.654V208H124.16V190.545H120.964L115.407 204.114H115.203L109.646 190.545H106.45ZM133.744 208.264C137.434 208.264 139.846 205.562 139.846 201.514C139.846 197.44 137.434 194.739 133.744 194.739C130.054 194.739 127.642 197.44 127.642 201.514C127.642 205.562 130.054 208.264 133.744 208.264ZM133.752 206.125C131.34 206.125 130.215 204.02 130.215 201.506C130.215 199 131.34 196.869 133.752 196.869C136.147 196.869 137.272 199 137.272 201.506C137.272 204.02 136.147 206.125 133.752 206.125Z" fill="#333333"/>
<path d="M175.749 192.812H181.187V208H183.812V192.812H189.258V190.545H175.749V192.812ZM198.55 202.571C198.558 204.795 196.905 205.852 195.473 205.852C193.896 205.852 192.805 204.71 192.805 202.929V194.909H190.257V203.236C190.257 206.483 192.038 208.17 194.552 208.17C196.521 208.17 197.859 207.131 198.464 205.733H198.601V208H201.106V194.909H198.55V202.571Z" fill="#333333"/>
<path d="M241.961 208H244.62L248.294 194.926H248.43L252.103 208H254.754L259.603 190.545H256.825L253.433 204.071H253.271L249.734 190.545H246.99L243.453 204.062H243.291L239.89 190.545H237.12L241.961 208ZM266.153 208.264C269.008 208.264 271.028 206.858 271.608 204.727L269.196 204.293C268.735 205.528 267.627 206.159 266.179 206.159C263.997 206.159 262.531 204.744 262.463 202.222H271.769V201.318C271.769 196.588 268.94 194.739 265.974 194.739C262.326 194.739 259.923 197.517 259.923 201.54C259.923 205.605 262.292 208.264 266.153 208.264ZM262.471 200.312C262.573 198.455 263.92 196.844 265.991 196.844C267.968 196.844 269.264 198.31 269.272 200.312H262.471Z" fill="#333333"/>
<path d="M307.777 192.812H313.214V208H315.839V192.812H321.285V190.545H307.777V192.812ZM326.614 200.227C326.614 198.139 327.935 196.946 329.75 196.946C331.506 196.946 332.554 198.062 332.554 199.98V208H335.103V199.673C335.103 196.409 333.313 194.739 330.62 194.739C328.583 194.739 327.355 195.625 326.742 197.04H326.58V190.545H324.066V208H326.614V200.227Z" fill="#333333"/>
<path d="M371.618 208H374.251V200.389H381.666V198.131H374.251V192.812H382.442V190.545H371.618V208ZM385.312 208H387.86V200.006C387.86 198.293 389.181 197.057 390.988 197.057C391.516 197.057 392.113 197.151 392.317 197.21V194.773C392.062 194.739 391.559 194.713 391.235 194.713C389.701 194.713 388.388 195.582 387.911 196.989H387.775V194.909H385.312V208Z" fill="#333333"/>
<path d="M437.138 195.131H439.677C439.601 192.335 437.129 190.307 433.584 190.307C430.081 190.307 427.396 192.31 427.396 195.318C427.396 197.747 429.135 199.17 431.939 199.929L434.001 200.491C435.868 200.986 437.308 201.599 437.308 203.151C437.308 204.855 435.68 205.98 433.439 205.98C431.41 205.98 429.723 205.077 429.57 203.176H426.927C427.098 206.338 429.544 208.29 433.456 208.29C437.555 208.29 439.916 206.134 439.916 203.176C439.916 200.031 437.112 198.812 434.896 198.267L433.192 197.824C431.828 197.474 430.013 196.835 430.021 195.165C430.021 193.682 431.376 192.582 433.524 192.582C435.527 192.582 436.95 193.52 437.138 195.131ZM446.668 208.29C448.833 208.29 450.052 207.19 450.538 206.21H450.64V208H453.128V199.307C453.128 195.497 450.128 194.739 448.049 194.739C445.68 194.739 443.498 195.693 442.646 198.08L445.04 198.625C445.415 197.696 446.37 196.801 448.083 196.801C449.728 196.801 450.572 197.662 450.572 199.145V199.205C450.572 200.134 449.617 200.116 447.265 200.389C444.785 200.679 442.245 201.327 442.245 204.301C442.245 206.875 444.18 208.29 446.668 208.29ZM447.222 206.244C445.782 206.244 444.742 205.597 444.742 204.335C444.742 202.972 445.952 202.486 447.427 202.29C448.253 202.179 450.214 201.957 450.58 201.591V203.278C450.58 204.83 449.344 206.244 447.222 206.244Z" fill="#333333"/>
<path d="M498.833 195.131H501.373C501.296 192.335 498.824 190.307 495.279 190.307C491.776 190.307 489.092 192.31 489.092 195.318C489.092 197.747 490.83 199.17 493.634 199.929L495.697 200.491C497.563 200.986 499.003 201.599 499.003 203.151C499.003 204.855 497.376 205.98 495.134 205.98C493.106 205.98 491.418 205.077 491.265 203.176H488.623C488.793 206.338 491.239 208.29 495.151 208.29C499.251 208.29 501.611 206.134 501.611 203.176C501.611 200.031 498.807 198.812 496.592 198.267L494.887 197.824C493.523 197.474 491.708 196.835 491.717 195.165C491.717 193.682 493.072 192.582 495.219 192.582C497.222 192.582 498.646 193.52 498.833 195.131ZM512.847 202.571C512.855 204.795 511.202 205.852 509.77 205.852C508.193 205.852 507.102 204.71 507.102 202.929V194.909H504.554V203.236C504.554 206.483 506.335 208.17 508.849 208.17C510.818 208.17 512.156 207.131 512.761 205.733H512.898V208H515.403V194.909H512.847V202.571Z" fill="#333333"/>
<path d="M323.884 251.545H321.319L316.964 254.392V256.915L321.14 254.188H321.242V269H323.884V251.545Z" fill="#666666"/>
<path d="M376.074 269H387.563V266.741H379.705V266.614L383.174 262.983C386.37 259.753 387.282 258.21 387.282 256.259C387.282 253.455 384.998 251.307 381.708 251.307C378.444 251.307 376.057 253.42 376.057 256.608H378.572C378.563 254.733 379.773 253.506 381.657 253.506C383.43 253.506 384.776 254.597 384.776 256.335C384.776 257.878 383.856 258.986 381.981 260.972L376.074 267.091V269Z" fill="#666666"/>
<path d="M440.276 269.239C443.839 269.239 446.455 267.108 446.447 264.21C446.455 262.003 445.117 260.418 442.799 260.06V259.923C444.623 259.455 445.807 258.023 445.799 256.062C445.807 253.497 443.702 251.307 440.344 251.307C437.14 251.307 434.566 253.241 434.481 256.08H437.029C437.089 254.477 438.597 253.506 440.31 253.506C442.092 253.506 443.259 254.588 443.251 256.199C443.259 257.886 441.904 258.994 439.969 258.994H438.495V261.142H439.969C442.39 261.142 443.788 262.369 443.788 264.125C443.788 265.821 442.313 266.972 440.259 266.972C438.367 266.972 436.893 266 436.79 264.449H434.114C434.225 267.295 436.748 269.239 440.276 269.239Z" fill="#666666"/>
<path d="M495.716 265.591H503.991V269H506.506V265.591H508.815V263.358H506.506V251.545H503.258L495.716 263.46V265.591ZM504.008 263.358H498.477V263.222L503.872 254.682H504.008V263.358Z" fill="#666666"/>
<path d="M122.754 330.239C126.265 330.239 128.771 327.759 128.762 324.358C128.771 320.983 126.419 318.528 123.24 318.528C121.944 318.528 120.742 319.023 120.061 319.688H119.958L120.512 314.804H127.919V312.545H118.322L117.342 321.341L119.754 321.699C120.41 321.111 121.586 320.71 122.643 320.71C124.714 320.727 126.214 322.278 126.214 324.409C126.214 326.506 124.757 328.023 122.754 328.023C121.066 328.023 119.728 326.949 119.592 325.449H117.035C117.137 328.227 119.549 330.239 122.754 330.239Z" fill="#666666"/>
<path d="M188.399 330.239C192.046 330.273 194.467 327.648 194.458 324.298C194.467 320.957 192.038 318.562 189.012 318.562C187.171 318.562 185.578 319.449 184.683 320.923H184.555C184.563 316.918 186.063 314.574 188.62 314.574C190.299 314.574 191.356 315.588 191.714 317.08H194.313C193.913 314.276 191.74 312.264 188.62 312.264C184.563 312.264 182.032 315.75 182.032 321.861C182.032 328.287 185.296 330.213 188.399 330.239ZM188.39 328.023C186.362 328.023 184.879 326.318 184.879 324.358C184.887 322.406 186.438 320.702 188.45 320.702C190.444 320.702 191.91 322.312 191.902 324.332C191.91 326.395 190.384 328.023 188.39 328.023Z" fill="#666666"/>
<path d="M249.573 330H252.326L259.919 314.881V312.545H248.38V314.804H257.192V314.932L249.573 330Z" fill="#666666"/>
<circle cx="321.255" cy="321" r="28" fill="#FB3F4A"/>
<path d="M321.25 330.239C324.88 330.239 327.446 328.176 327.463 325.347C327.446 323.148 325.903 321.298 323.951 320.949V320.847C325.647 320.438 326.798 318.844 326.815 316.96C326.798 314.293 324.446 312.307 321.25 312.307C318.019 312.307 315.667 314.293 315.684 316.96C315.667 318.835 316.818 320.438 318.548 320.847V320.949C316.562 321.298 315.019 323.148 315.036 325.347C315.019 328.176 317.585 330.239 321.25 330.239ZM321.25 328.082C319.068 328.082 317.687 326.923 317.704 325.176C317.687 323.361 319.187 322.065 321.25 322.065C323.278 322.065 324.778 323.361 324.795 325.176C324.778 326.923 323.406 328.082 321.25 328.082ZM321.25 319.96C319.485 319.96 318.233 318.844 318.25 317.182C318.233 315.545 319.443 314.463 321.25 314.463C323.022 314.463 324.233 315.545 324.25 317.182C324.233 318.844 322.988 319.96 321.25 319.96Z" fill="white"/>
<path d="M381.109 312.264C377.444 312.239 375.049 314.864 375.049 318.205C375.049 321.545 377.47 323.949 380.495 323.949C382.345 323.949 383.93 323.045 384.825 321.58H384.961C384.953 325.594 383.444 327.938 380.887 327.938C379.217 327.938 378.143 326.915 377.802 325.423H375.203C375.586 328.244 377.768 330.239 380.887 330.239C384.944 330.239 387.475 326.753 387.484 320.642C387.475 314.224 384.22 312.29 381.109 312.264ZM381.117 314.48C383.137 314.48 384.629 316.193 384.629 318.145C384.629 320.097 383.061 321.801 381.066 321.801C379.063 321.801 377.606 320.199 377.606 318.17C377.606 316.108 379.115 314.48 381.117 314.48Z" fill="#666666"/>
<path d="M435.638 312.545H433.073L428.718 315.392V317.915L432.894 315.188H432.996V330H435.638V312.545ZM446.436 330.29C450.468 330.29 452.828 327 452.828 321.281C452.828 315.605 450.434 312.307 446.436 312.307C442.431 312.307 440.044 315.597 440.036 321.281C440.036 326.991 442.397 330.281 446.436 330.29ZM446.436 328.014C444.076 328.014 442.652 325.645 442.652 321.281C442.661 316.935 444.084 314.54 446.436 314.54C448.78 314.54 450.212 316.935 450.212 321.281C450.212 325.645 448.789 328.014 446.436 328.014Z" fill="#666666"/>
<path d="M499.712 312.545H497.147L492.792 315.392V317.915L496.968 315.188H497.07V330H499.712V312.545ZM511.056 312.545H508.491L504.136 315.392V317.915L508.312 315.188H508.414V330H511.056V312.545Z" fill="#666666"/>
<path d="M118.025 373.545H115.459L111.104 376.392V378.915L115.28 376.188H115.383V391H118.025V373.545ZM122.746 391H134.235V388.741H126.377V388.614L129.846 384.983C133.042 381.753 133.954 380.21 133.954 378.259C133.954 375.455 131.67 373.307 128.38 373.307C125.116 373.307 122.729 375.42 122.729 378.608H125.244C125.235 376.733 126.445 375.506 128.329 375.506C130.101 375.506 131.448 376.597 131.448 378.335C131.448 379.878 130.528 380.986 128.653 382.972L122.746 389.091V391Z" fill="#666666"/>
<path d="M183.65 373.545H181.084L176.729 376.392V378.915L180.905 376.188H181.008V391H183.65V373.545ZM194.448 391.239C198.011 391.239 200.627 389.108 200.619 386.21C200.627 384.003 199.289 382.418 196.971 382.06V381.923C198.795 381.455 199.979 380.023 199.971 378.062C199.979 375.497 197.874 373.307 194.516 373.307C191.312 373.307 188.738 375.241 188.653 378.08H191.201C191.261 376.477 192.769 375.506 194.482 375.506C196.263 375.506 197.431 376.588 197.422 378.199C197.431 379.886 196.076 380.994 194.141 380.994H192.667V383.142H194.141C196.562 383.142 197.959 384.369 197.959 386.125C197.959 387.821 196.485 388.972 194.431 388.972C192.539 388.972 191.065 388 190.962 386.449H188.286C188.397 389.295 190.92 391.239 194.448 391.239Z" fill="#666666"/>
<path d="M249.033 373.545H246.467L242.112 376.392V378.915L246.288 376.188H246.391V391H249.033V373.545ZM253.388 387.591H261.663V391H264.177V387.591H266.487V385.358H264.177V373.545H260.93L253.388 385.46V387.591ZM261.68 385.358H256.149V385.222L261.544 376.682H261.68V385.358Z" fill="#666666"/>
<path d="M316.943 373.545H314.377L310.022 376.392V378.915L314.198 376.188H314.301V391H316.943V373.545ZM327.426 391.239C330.937 391.239 333.443 388.759 333.434 385.358C333.443 381.983 331.09 379.528 327.911 379.528C326.616 379.528 325.414 380.023 324.733 380.688H324.63L325.184 375.804H332.59V373.545H322.994L322.014 382.341L324.426 382.699C325.082 382.111 326.258 381.71 327.315 381.71C329.386 381.727 330.886 383.278 330.886 385.409C330.886 387.506 329.429 389.023 327.426 389.023C325.738 389.023 324.4 387.949 324.264 386.449H321.707C321.809 389.227 324.221 391.239 327.426 391.239Z" fill="#666666"/>
<path d="M376.755 373.545H374.19L369.835 376.392V378.915L374.011 376.188H374.113V391H376.755V373.545ZM387.571 391.239C391.218 391.273 393.639 388.648 393.63 385.298C393.639 381.957 391.21 379.562 388.184 379.562C386.343 379.562 384.75 380.449 383.855 381.923H383.727C383.735 377.918 385.235 375.574 387.792 375.574C389.471 375.574 390.528 376.588 390.886 378.08H393.485C393.085 375.276 390.911 373.264 387.792 373.264C383.735 373.264 381.204 376.75 381.204 382.861C381.204 389.287 384.468 391.213 387.571 391.239ZM387.562 389.023C385.534 389.023 384.051 387.318 384.051 385.358C384.059 383.406 385.61 381.702 387.622 381.702C389.616 381.702 391.082 383.312 391.073 385.332C391.082 387.395 389.556 389.023 387.562 389.023Z" fill="#666666"/>
<path d="M435.935 373.545H433.37L429.014 376.392V378.915L433.191 376.188H433.293V391H435.935V373.545ZM441.245 391H443.997L451.591 375.881V373.545H440.051V375.804H448.864V375.932L441.245 391Z" fill="#666666"/>
<path d="M497.802 373.545H495.237L490.882 376.392V378.915L495.058 376.188H495.16V391H497.802V373.545ZM508.421 391.239C512.052 391.239 514.617 389.176 514.634 386.347C514.617 384.148 513.075 382.298 511.123 381.949V381.847C512.819 381.438 513.97 379.844 513.987 377.96C513.97 375.293 511.617 373.307 508.421 373.307C505.191 373.307 502.839 375.293 502.856 377.96C502.839 379.835 503.99 381.438 505.72 381.847V381.949C503.734 382.298 502.191 384.148 502.208 386.347C502.191 389.176 504.757 391.239 508.421 391.239ZM508.421 389.082C506.24 389.082 504.859 387.923 504.876 386.176C504.859 384.361 506.359 383.065 508.421 383.065C510.45 383.065 511.95 384.361 511.967 386.176C511.95 387.923 510.578 389.082 508.421 389.082ZM508.421 380.96C506.657 380.96 505.404 379.844 505.421 378.182C505.404 376.545 506.615 375.463 508.421 375.463C510.194 375.463 511.404 376.545 511.421 378.182C511.404 379.844 510.16 380.96 508.421 380.96Z" fill="#666666"/>
<path d="M117.755 434.545H115.19L110.835 437.392V439.915L115.011 437.188H115.113V452H117.755V434.545ZM128.281 434.264C124.616 434.239 122.221 436.864 122.221 440.205C122.221 443.545 124.642 445.949 127.667 445.949C129.517 445.949 131.102 445.045 131.997 443.58H132.133C132.125 447.594 130.616 449.938 128.059 449.938C126.389 449.938 125.315 448.915 124.974 447.423H122.375C122.758 450.244 124.94 452.239 128.059 452.239C132.116 452.239 134.647 448.753 134.656 442.642C134.647 436.224 131.392 434.29 128.281 434.264ZM128.289 436.48C130.309 436.48 131.801 438.193 131.801 440.145C131.801 442.097 130.233 443.801 128.238 443.801C126.235 443.801 124.778 442.199 124.778 440.17C124.778 438.108 126.286 436.48 128.289 436.48Z" fill="#666666"/>
<path d="M175.328 452H186.817V449.741H178.959V449.614L182.428 445.983C185.624 442.753 186.536 441.21 186.536 439.259C186.536 436.455 184.252 434.307 180.962 434.307C177.698 434.307 175.311 436.42 175.311 439.608H177.826C177.817 437.733 179.027 436.506 180.911 436.506C182.684 436.506 184.03 437.597 184.03 439.335C184.03 440.878 183.11 441.986 181.235 443.972L175.328 450.091V452ZM196.124 452.29C200.155 452.29 202.516 449 202.516 443.281C202.516 437.605 200.121 434.307 196.124 434.307C192.118 434.307 189.732 437.597 189.723 443.281C189.723 448.991 192.084 452.281 196.124 452.29ZM196.124 450.014C193.763 450.014 192.34 447.645 192.34 443.281C192.348 438.935 193.772 436.54 196.124 436.54C198.468 436.54 199.899 438.935 199.899 443.281C199.899 447.645 198.476 450.014 196.124 450.014Z" fill="#666666"/>
<path d="M243.403 452H254.891V449.741H247.033V449.614L250.502 445.983C253.698 442.753 254.61 441.21 254.61 439.259C254.61 436.455 252.326 434.307 249.036 434.307C245.772 434.307 243.386 436.42 243.386 439.608H245.9C245.891 437.733 247.101 436.506 248.985 436.506C250.758 436.506 252.104 437.597 252.104 439.335C252.104 440.878 251.184 441.986 249.309 443.972L243.403 450.091V452ZM264.744 434.545H262.178L257.823 437.392V439.915L261.999 437.188H262.101V452H264.744V434.545Z" fill="#666666"/>
<path d="M308.215 452H319.704V449.741H311.846V449.614L315.315 445.983C318.511 442.753 319.422 441.21 319.422 439.259C319.422 436.455 317.138 434.307 313.849 434.307C310.584 434.307 308.198 436.42 308.198 439.608H310.712C310.704 437.733 311.914 436.506 313.797 436.506C315.57 436.506 316.917 437.597 316.917 439.335C316.917 440.878 315.996 441.986 314.121 443.972L308.215 450.091V452ZM322.934 452H334.422V449.741H326.565V449.614L330.033 445.983C333.229 442.753 334.141 441.21 334.141 439.259C334.141 436.455 331.857 434.307 328.567 434.307C325.303 434.307 322.917 436.42 322.917 439.608H325.431C325.422 437.733 326.633 436.506 328.516 436.506C330.289 436.506 331.636 437.597 331.636 439.335C331.636 440.878 330.715 441.986 328.84 443.972L322.934 450.091V452Z" fill="#666666"/>
<path d="M368.34 452H379.829V449.741H371.971V449.614L375.44 445.983C378.636 442.753 379.547 441.21 379.547 439.259C379.547 436.455 377.263 434.307 373.974 434.307C370.709 434.307 368.323 436.42 368.323 439.608H370.837C370.829 437.733 372.039 436.506 373.922 436.506C375.695 436.506 377.042 437.597 377.042 439.335C377.042 440.878 376.121 441.986 374.246 443.972L368.34 450.091V452ZM389.136 452.239C392.698 452.239 395.315 450.108 395.306 447.21C395.315 445.003 393.976 443.418 391.658 443.06V442.923C393.482 442.455 394.667 441.023 394.658 439.062C394.667 436.497 392.562 434.307 389.204 434.307C385.999 434.307 383.425 436.241 383.34 439.08H385.888C385.948 437.477 387.457 436.506 389.17 436.506C390.951 436.506 392.119 437.588 392.11 439.199C392.119 440.886 390.763 441.994 388.829 441.994H387.354V444.142H388.829C391.249 444.142 392.647 445.369 392.647 447.125C392.647 448.821 391.172 449.972 389.119 449.972C387.226 449.972 385.752 449 385.65 447.449H382.974C383.084 450.295 385.607 452.239 389.136 452.239Z" fill="#666666"/>
<path d="M427.41 452H438.899V449.741H431.041V449.614L434.51 445.983C437.706 442.753 438.618 441.21 438.618 439.259C438.618 436.455 436.334 434.307 433.044 434.307C429.78 434.307 427.393 436.42 427.393 439.608H429.908C429.899 437.733 431.109 436.506 432.993 436.506C434.766 436.506 436.112 437.597 436.112 439.335C436.112 440.878 435.192 441.986 433.317 443.972L427.41 450.091V452ZM441.388 448.591H449.663V452H452.177V448.591H454.487V446.358H452.177V434.545H448.93L441.388 446.46V448.591ZM449.68 446.358H444.149V446.222L449.544 437.682H449.68V446.358Z" fill="#666666"/>
<path d="M489.133 452H500.622V449.741H492.764V449.614L496.233 445.983C499.429 442.753 500.34 441.21 500.34 439.259C500.34 436.455 498.056 434.307 494.767 434.307C491.502 434.307 489.116 436.42 489.116 439.608H491.63C491.622 437.733 492.832 436.506 494.715 436.506C496.488 436.506 497.835 437.597 497.835 439.335C497.835 440.878 496.914 441.986 495.039 443.972L489.133 450.091V452ZM509.613 452.239C513.125 452.239 515.63 449.759 515.622 446.358C515.63 442.983 513.278 440.528 510.099 440.528C508.804 440.528 507.602 441.023 506.92 441.688H506.818L507.372 436.804H514.778V434.545H505.181L504.201 443.341L506.613 443.699C507.269 443.111 508.446 442.71 509.502 442.71C511.573 442.727 513.073 444.278 513.073 446.409C513.073 448.506 511.616 450.023 509.613 450.023C507.926 450.023 506.588 448.949 506.451 447.449H503.894C503.997 450.227 506.409 452.239 509.613 452.239Z" fill="#666666"/>
<path d="M108.946 513H120.434V510.741H112.576V510.614L116.045 506.983C119.241 503.753 120.153 502.21 120.153 500.259C120.153 497.455 117.869 495.307 114.579 495.307C111.315 495.307 108.929 497.42 108.929 500.608H111.443C111.434 498.733 112.644 497.506 114.528 497.506C116.301 497.506 117.647 498.597 117.647 500.335C117.647 501.878 116.727 502.986 114.852 504.972L108.946 511.091V513ZM129.758 513.239C133.406 513.273 135.826 510.648 135.818 507.298C135.826 503.957 133.397 501.562 130.372 501.562C128.531 501.562 126.937 502.449 126.042 503.923H125.914C125.923 499.918 127.423 497.574 129.98 497.574C131.659 497.574 132.715 498.588 133.073 500.08H135.673C135.272 497.276 133.099 495.264 129.98 495.264C125.923 495.264 123.392 498.75 123.392 504.861C123.392 511.287 126.656 513.213 129.758 513.239ZM129.75 511.023C127.721 511.023 126.238 509.318 126.238 507.358C126.247 505.406 127.798 503.702 129.809 503.702C131.804 503.702 133.269 505.312 133.261 507.332C133.269 509.395 131.744 511.023 129.75 511.023Z" fill="#666666"/>
<path d="M176.125 513H187.614V510.741H179.756V510.614L183.225 506.983C186.421 503.753 187.333 502.21 187.333 500.259C187.333 497.455 185.049 495.307 181.759 495.307C178.495 495.307 176.108 497.42 176.108 500.608H178.622C178.614 498.733 179.824 497.506 181.708 497.506C183.48 497.506 184.827 498.597 184.827 500.335C184.827 501.878 183.907 502.986 182.032 504.972L176.125 511.091V513ZM191.432 513H194.185L201.779 497.881V495.545H190.239V497.804H199.051V497.932L191.432 513Z" fill="#666666"/>
<path d="M240.992 513H252.481V510.741H244.623V510.614L248.092 506.983C251.288 503.753 252.2 502.21 252.2 500.259C252.2 497.455 249.916 495.307 246.626 495.307C243.362 495.307 240.975 497.42 240.975 500.608H243.49C243.481 498.733 244.691 497.506 246.575 497.506C248.348 497.506 249.694 498.597 249.694 500.335C249.694 501.878 248.774 502.986 246.899 504.972L240.992 511.091V513ZM261.609 513.239C265.24 513.239 267.805 511.176 267.822 508.347C267.805 506.148 266.262 504.298 264.311 503.949V503.847C266.007 503.438 267.157 501.844 267.174 499.96C267.157 497.293 264.805 495.307 261.609 495.307C258.379 495.307 256.027 497.293 256.044 499.96C256.027 501.835 257.177 503.438 258.907 503.847V503.949C256.921 504.298 255.379 506.148 255.396 508.347C255.379 511.176 257.944 513.239 261.609 513.239ZM261.609 511.082C259.427 511.082 258.046 509.923 258.063 508.176C258.046 506.361 259.546 505.065 261.609 505.065C263.637 505.065 265.137 506.361 265.154 508.176C265.137 509.923 263.765 511.082 261.609 511.082ZM261.609 502.96C259.845 502.96 258.592 501.844 258.609 500.182C258.592 498.545 259.802 497.463 261.609 497.463C263.382 497.463 264.592 498.545 264.609 500.182C264.592 501.844 263.348 502.96 261.609 502.96Z" fill="#666666"/>
<path d="M307.946 513H319.434V510.741H311.576V510.614L315.045 506.983C318.241 503.753 319.153 502.21 319.153 500.259C319.153 497.455 316.869 495.307 313.579 495.307C310.315 495.307 307.929 497.42 307.929 500.608H310.443C310.434 498.733 311.644 497.506 313.528 497.506C315.301 497.506 316.647 498.597 316.647 500.335C316.647 501.878 315.727 502.986 313.852 504.972L307.946 511.091V513ZM328.468 495.264C324.804 495.239 322.409 497.864 322.409 501.205C322.409 504.545 324.829 506.949 327.855 506.949C329.704 506.949 331.289 506.045 332.184 504.58H332.321C332.312 508.594 330.804 510.938 328.247 510.938C326.576 510.938 325.502 509.915 325.161 508.423H322.562C322.946 511.244 325.127 513.239 328.247 513.239C332.304 513.239 334.835 509.753 334.843 503.642C334.835 497.224 331.579 495.29 328.468 495.264ZM328.477 497.48C330.497 497.48 331.988 499.193 331.988 501.145C331.988 503.097 330.42 504.801 328.426 504.801C326.423 504.801 324.965 503.199 324.965 501.17C324.965 499.108 326.474 497.48 328.477 497.48Z" fill="#666666"/>
<path d="M374.03 513.239C377.593 513.239 380.209 511.108 380.201 508.21C380.209 506.003 378.871 504.418 376.553 504.06V503.923C378.377 503.455 379.561 502.023 379.553 500.062C379.561 497.497 377.456 495.307 374.098 495.307C370.894 495.307 368.32 497.241 368.235 500.08H370.783C370.843 498.477 372.351 497.506 374.064 497.506C375.845 497.506 377.013 498.588 377.005 500.199C377.013 501.886 375.658 502.994 373.723 502.994H372.249V505.142H373.723C376.144 505.142 377.541 506.369 377.541 508.125C377.541 509.821 376.067 510.972 374.013 510.972C372.121 510.972 370.647 510 370.544 508.449H367.868C367.979 511.295 370.502 513.239 374.03 513.239ZM389.499 513.29C393.53 513.29 395.891 510 395.891 504.281C395.891 498.605 393.496 495.307 389.499 495.307C385.493 495.307 383.107 498.597 383.098 504.281C383.098 509.991 385.459 513.281 389.499 513.29ZM389.499 511.014C387.138 511.014 385.715 508.645 385.715 504.281C385.723 499.935 387.147 497.54 389.499 497.54C391.843 497.54 393.274 499.935 393.274 504.281C393.274 508.645 391.851 511.014 389.499 511.014Z" fill="#666666"/>
<path d="M437.104 513.239C440.667 513.239 443.283 511.108 443.275 508.21C443.283 506.003 441.945 504.418 439.627 504.06V503.923C441.451 503.455 442.636 502.023 442.627 500.062C442.636 497.497 440.53 495.307 437.172 495.307C433.968 495.307 431.394 497.241 431.309 500.08H433.857C433.917 498.477 435.425 497.506 437.138 497.506C438.92 497.506 440.087 498.588 440.079 500.199C440.087 501.886 438.732 502.994 436.797 502.994H435.323V505.142H436.797C439.218 505.142 440.616 506.369 440.616 508.125C440.616 509.821 439.141 510.972 437.087 510.972C435.195 510.972 433.721 510 433.619 508.449H430.942C431.053 511.295 433.576 513.239 437.104 513.239ZM453.119 495.545H450.553L446.198 498.392V500.915L450.374 498.188H450.476V513H453.119V495.545Z" fill="#666666"/>
</g>
</g>
<defs>
<filter id="filter0_d_8_496" x="0.254883" y="0" width="624" height="627" filterUnits="userSpaceOnUse" color-interpolation-filters="sRGB">
<feFlood flood-opacity="0" result="BackgroundImageFix"/>
<feColorMatrix in="SourceAlpha" type="matrix" values="0 0 0 0 0 0 0 0 0 0 0 0 0 0 0 0 0 0 127 0" result="hardAlpha"/>
<feOffset dy="4"/>
<feGaussianBlur stdDeviation="16"/>
<feColorMatrix type="matrix" values="0 0 0 0 0.666667 0 0 0 0 0.666667 0 0 0 0 0.666667 0 0 0 0.03 0"/>
<feBlend mode="normal" in2="BackgroundImageFix" result="effect1_dropShadow_8_496"/>
<feBlend mode="normal" in="SourceGraphic" in2="effect1_dropShadow_8_496" result="shape"/>
</filter>
<clipPath id="clip0_8_496">
<rect width="416" height="334" fill="white" transform="translate(104.255 185)"/>
</clipPath>
</defs>
</svg>
