<?xml version="1.0" encoding="UTF-8"?> <svg xmlns="http://www.w3.org/2000/svg" width="201" height="68" viewBox="0 0 201 68" fill="none"> <path fill-rule="evenodd" clip-rule="evenodd" d="M20.532 0.00585938C19.8624 0.010814 19.0226 0.0194726 17.8812 0.0333803C16.0593 0.0815438 14.6772 0.191721 13.3228 0.432358C11.6723 0.725038 10.1781 1.20683 8.7496 1.9264C7.29779 2.65603 5.96824 3.6107 4.81482 4.75221C3.66262 5.88999 2.6957 7.20567 1.95412 8.64525C1.22521 10.0607 0.737098 11.5414 0.438276 13.181C0.194322 14.5229 0.0836094 15.8868 0.0351709 17.6699L0.0185361 18.4126C0.0141283 18.6676 0.0108034 18.9316 0.00839819 19.2093L0.000488281 20.8228L0.000552723 47.212L0.00545089 48.3627C0.00927752 49.0955 0.0183346 49.7261 0.0352088 50.3318C0.0836466 52.1134 0.19439 53.4777 0.438165 54.8176C0.737208 56.4584 1.22541 57.94 1.95401 59.3548C2.69585 60.7937 3.66239 62.1088 4.81561 63.2489C5.97016 64.3902 7.29976 65.3453 8.75124 66.0747C10.1781 66.7935 11.6723 67.2753 13.3234 67.5681C14.5542 67.7867 15.8083 67.8977 17.3734 67.9518L18.5462 67.9804C19.1562 67.9889 20.0576 67.9937 21.8572 67.9992L47.3769 67.9953C48.0534 67.9907 48.871 67.9821 50.1196 67.9669C51.9415 67.9188 53.3236 67.8086 54.6781 67.5679C56.3285 67.2753 57.8227 66.7935 59.2512 66.0739C60.7015 65.3444 62.0318 64.3891 63.1852 63.2489C64.3392 62.1081 65.3058 60.7924 66.0459 59.3544C66.7754 57.9403 67.264 56.4577 67.5617 54.8167C67.7835 53.5979 67.896 52.355 67.9509 50.805L67.9657 50.3305C67.9758 49.9678 67.9831 49.5958 67.9881 49.1983L67.9999 46.0705L67.9979 20.2019L67.9881 18.8021C67.9831 18.4045 67.9757 18.032 67.9656 17.6685C67.9174 15.8941 67.8057 14.5247 67.5616 13.1818C67.2641 11.5421 66.7756 10.0604 66.0451 8.64425C65.3059 7.20695 64.339 5.89074 63.1844 4.75065C62.0337 3.61182 60.7035 2.65692 59.2502 1.92589C57.8227 1.20683 56.3285 0.725038 54.6774 0.432248C53.4467 0.213587 52.1925 0.102653 50.6275 0.0485224L49.2805 0.0176752C49.1733 0.016409 49.0572 0.0152298 48.9296 0.0141184L20.532 0.00585938Z" fill="#1A1A1A" fill-opacity="0.01"></path> <path fill-rule="evenodd" clip-rule="evenodd" d="M17.9057 2.03301L20.6432 2.00488L49.1264 2.01584C49.5583 2.0203 49.8268 2.02571 50.0954 2.03301C51.5075 2.0705 52.9319 2.1532 54.3284 2.4013C55.7461 2.65271 57.0645 3.06401 58.3516 3.71238C59.6165 4.34861 60.7754 5.18003 61.7793 6.17353C62.7832 7.16483 63.6242 8.30939 64.2678 9.56092C64.9247 10.8345 65.3397 12.1379 65.594 13.5393C65.845 14.9199 65.9286 16.328 65.9665 17.724C65.9844 18.3646 65.9922 19.0053 65.9955 19.647L65.9994 20.7879L66 46.0703C66 46.8312 66 47.592 65.9955 48.354C65.9922 48.9946 65.9844 49.6353 65.9665 50.2759C65.9286 51.6708 65.845 53.08 65.594 54.4594C65.3397 55.8609 64.9247 57.1654 64.2678 58.4389C63.6242 59.6894 62.7832 60.8339 61.7793 61.8263C60.7754 62.8187 59.6165 63.6513 58.3516 64.2875C57.0645 64.9359 55.7461 65.3472 54.3284 65.5986C52.9319 65.8467 51.5075 65.9294 50.0954 65.9669L45.8412 65.9999L18.8739 65.984C18.442 65.9796 18.1739 65.9742 17.9057 65.9669C16.4936 65.9294 15.0692 65.8467 13.6727 65.5986C12.2551 65.3472 10.9367 64.9359 9.64947 64.2875C8.38348 63.6513 7.22569 62.8187 6.22182 61.8263C5.21795 60.8339 4.37694 59.6894 3.73223 58.4389C3.07637 57.1654 2.66144 55.8609 2.40601 54.4594C2.15504 53.08 2.0725 51.6708 2.03458 50.2759C2.01673 49.6353 2.00892 48.9946 2.00558 48.354L2.0007 47.2117L2 21.9295C2 21.1687 2 20.4068 2.00558 19.647C2.00892 19.0053 2.01673 18.3646 2.03458 17.724C2.0725 16.328 2.15504 14.9199 2.40601 13.5393C2.66144 12.1379 3.07637 10.8345 3.73223 9.56092C4.37694 8.30939 5.21795 7.16483 6.22182 6.17353C7.22569 5.18003 8.38348 4.34861 9.64947 3.71238C10.9367 3.06401 12.2551 2.65271 13.6727 2.4013C15.0692 2.1532 16.4936 2.0705 17.9057 2.03301Z" fill="#1A1A1A" fill-opacity="0.01"></path> <mask id="mask0_1380_1268" style="mask-type:luminance" maskUnits="userSpaceOnUse" x="2" y="2" width="64" height="64"> <path fill-rule="evenodd" clip-rule="evenodd" d="M17.9057 2.03301L20.6432 2.00488L49.1264 2.01584C49.5583 2.0203 49.8268 2.02571 50.0954 2.03301C51.5075 2.0705 52.9319 2.1532 54.3284 2.4013C55.7461 2.65271 57.0645 3.06401 58.3516 3.71238C59.6165 4.34861 60.7754 5.18003 61.7793 6.17353C62.7832 7.16483 63.6242 8.30939 64.2678 9.56092C64.9247 10.8345 65.3397 12.1379 65.594 13.5393C65.845 14.9199 65.9286 16.328 65.9665 17.724C65.9844 18.3646 65.9922 19.0053 65.9955 19.647L65.9994 20.7879L66 46.0703C66 46.8312 66 47.592 65.9955 48.354C65.9922 48.9946 65.9844 49.6353 65.9665 50.2759C65.9286 51.6708 65.845 53.08 65.594 54.4594C65.3397 55.8609 64.9247 57.1654 64.2678 58.4389C63.6242 59.6894 62.7832 60.8339 61.7793 61.8263C60.7754 62.8187 59.6165 63.6513 58.3516 64.2875C57.0645 64.9359 55.7461 65.3472 54.3284 65.5986C52.9319 65.8467 51.5075 65.9294 50.0954 65.9669L45.8412 65.9999L18.8739 65.984C18.442 65.9796 18.1739 65.9742 17.9057 65.9669C16.4936 65.9294 15.0692 65.8467 13.6727 65.5986C12.2551 65.3472 10.9367 64.9359 9.64947 64.2875C8.38348 63.6513 7.22569 62.8187 6.22182 61.8263C5.21795 60.8339 4.37694 59.6894 3.73223 58.4389C3.07637 57.1654 2.66144 55.8609 2.40601 54.4594C2.15504 53.08 2.0725 51.6708 2.03458 50.2759C2.01673 49.6353 2.00892 48.9946 2.00558 48.354L2.0007 47.2117L2 21.9295C2 21.1687 2 20.4068 2.00558 19.647C2.00892 19.0053 2.01673 18.3646 2.03458 17.724C2.0725 16.328 2.15504 14.9199 2.40601 13.5393C2.66144 12.1379 3.07637 10.8345 3.73223 9.56092C4.37694 8.30939 5.21795 7.16483 6.22182 6.17353C7.22569 5.18003 8.38348 4.34861 9.64947 3.71238C10.9367 3.06401 12.2551 2.65271 13.6727 2.4013C15.0692 2.1532 16.4936 2.0705 17.9057 2.03301Z" fill="white"></path> </mask> <g mask="url(#mask0_1380_1268)"> <rect x="2" y="2" width="64" height="64" fill="#19AA1E"></rect> <path fill-rule="evenodd" clip-rule="evenodd" d="M2 2H66V23L2 13V2Z" fill="#FFB919"></path> <path fill-rule="evenodd" clip-rule="evenodd" d="M2 59L66 49V66H2V59Z" fill="#82D714"></path> <path fill-rule="evenodd" clip-rule="evenodd" d="M2 11.7354L24.3397 15.2259C27.1206 13.4656 30.429 12.5005 34 12.5005C38.946 12.5005 43.3883 14.3519 46.6229 17.6032C47.0311 18.0135 47.4161 18.4425 47.7771 18.888L66 21.7353V24.2656L49.6275 21.7075C50.8438 24.0417 51.5 26.6424 51.5 29.2965C51.5 32.7253 50.733 36.1441 49.1477 39.5764L49.0994 39.6804L48.4261 41.1232H46.8339C43.5462 41.1232 41.3653 42.1067 39.9395 43.8496C38.8199 45.2181 38.1725 47.0629 37.9547 49.0758L37.9481 49.1387L37.9162 49.4603L37.9027 49.6002L37.8768 49.8739C37.7935 50.7726 37.7377 51.5347 37.7094 52.1558L66 47.7353V50.2656L2 60.2656V57.7353L30.3225 53.3099L30.31 52.7418L30.3063 52.5816L30.3039 52.4995L30.2996 52.3727C30.274 51.6838 30.2109 50.8009 30.1098 49.7308L30.0904 49.5279L30.0558 49.1765C29.8525 47.153 29.2148 45.2848 28.0982 43.896C26.6873 42.1412 24.5265 41.1433 21.2652 41.1235L21.1661 41.1232H19.5739L18.9006 39.6804C17.2825 36.2131 16.5 32.76 16.5 29.2965C16.5 24.941 18.267 20.7293 21.3771 17.6032C21.4669 17.513 21.5576 17.4238 21.6492 17.3358L2 14.2656V11.7354Z" fill="white"></path> <path fill-rule="evenodd" clip-rule="evenodd" d="M34 15C42.935 15 49 21.8773 49 29.296C49 32.2744 48.3502 35.3736 46.8339 38.6227C38.0419 38.6227 35.8717 44.9191 35.4614 48.8807L35.4351 49.1447C35.2961 50.5586 35.2156 51.6931 35.1937 52.5484L32.8123 52.9204L32.8117 52.8434C32.8027 51.9469 32.718 50.6893 32.5576 49.0706L32.5505 49C32.1715 45.0469 30.0469 38.6227 21.1661 38.6227C19.6498 35.3736 19 32.2744 19 29.296C19 21.8773 25.065 15 34 15Z" fill="#0073FA"></path> </g> <path fill-rule="evenodd" clip-rule="evenodd" d="M95.5998 17.5C87.7998 17.5 81.9498 22.25 81.9998 30.5H89.2498C89.1498 27.2 91.2498 24 95.5998 24C98.8998 24 101 26.2 101 29C101 31.9 98.6998 33.5 94.9998 35.3C90.1498 37.65 87.2498 38.75 81.9998 40.5V50H109V43.5H91.7998C94.3061 42.4553 96.7456 41.3081 98.9498 40.25C104.8 37.45 108.25 34.3 108.25 28.65C108.25 21.85 103.15 17.5 95.5998 17.5ZM120 24.5H134V18H113V50H120V24.5ZM145 18H138V50H144.95L158 29.55V50H165V18H158L145 38.45V18ZM200.15 38H192.9C191.8 41.55 188.45 44 184.5 44C178.75 44 175 39.05 175 34C175 28.95 178.65 24 184.7 24C188.7 24 191.8 26.45 192.9 30H200.15C199.1 22.85 193.45 17.5 184.5 17.5C174.6 17.5 168 24.45 168 34C168 43.55 174.6 50.5 184.5 50.5C193.45 50.5 199.1 45.25 200.15 38Z" fill="white"></path> </svg> 